<svg width="23" height="16" viewBox="0 0 23 16" fill="none" xmlns="http://www.w3.org/2000/svg">
<g clip-path="url(#clip0)">
<path fill-rule="evenodd" clip-rule="evenodd" d="M20.6502 0.599609H2.4502C1.2902 0.599609 0.000198364 1.18961 0.000198364 2.34961V13.5496C0.000198364 14.7096 1.2902 15.9996 2.4502 15.9996H20.6502C21.8102 15.9996 22.4002 14.7096 22.4002 13.5496V2.34961C22.4002 1.18961 21.8102 0.599609 20.6502 0.599609ZM20.6502 1.99961C21.0362 1.99961 21.0002 1.96361 21.0002 2.34961V13.5496C21.0002 13.9356 21.0362 14.5996 20.6502 14.5996H2.4502C2.0642 14.5996 1.4002 13.9356 1.4002 13.5496V2.34961C1.4002 1.96361 2.0642 1.99961 2.4502 1.99961H20.3002" fill="#7F8083"/>
<path fill-rule="evenodd" clip-rule="evenodd" d="M11.2 11.1651C11.037 11.1651 10.873 11.1081 10.741 10.9941L0.241005 2.59409C-0.0509946 2.34109 -0.0819946 1.89909 0.171005 1.60709C0.425005 1.31409 0.866005 1.28309 1.15801 1.53609L11.2 9.53909L21.241 1.53609C21.533 1.28409 21.975 1.31409 22.229 1.60709C22.482 1.89909 22.45 2.34109 22.158 2.59409L11.658 10.9941C11.527 11.1081 11.364 11.1651 11.2 11.1651Z" fill="#7F8083"/>
</g>
<defs>
<clipPath id="clip0">
<rect width="23" height="16" fill="white"/>
</clipPath>
</defs>
</svg>
