<svg width="22" height="22" viewBox="0 0 22 22" fill="none" xmlns="http://www.w3.org/2000/svg">
<g clip-path="url(#clip0)">
<path fill-rule="evenodd" clip-rule="evenodd" d="M8.93757 8.24996V4.69462L12.4929 8.24996H8.93757ZM13.0625 20.6249H1.3751V4.12498H7.56257V9.62496H13.0625V20.6249ZM1.3751 2.74999C0.615908 2.74999 0.000106812 3.36579 0.000106812 4.12498V20.6249C0.000106812 21.3841 0.615908 21.9999 1.3751 21.9999H13.0625C13.8217 21.9999 14.4375 21.3841 14.4375 20.6249V8.24996L8.93757 2.74999H1.3751ZM16.5 5.49998V1.94463L20.0554 5.49998H16.5ZM16.5 0H8.93757C8.17837 0 7.56257 0.615801 7.56257 1.37499H8.93757H15.125V6.87497H20.625V17.8749H15.8125V19.2499H20.625C21.3842 19.2499 22 18.6341 22 17.8749V5.49998L16.5 0Z" fill="#7F8083"/>
</g>
<defs>
<clipPath id="clip0">
<rect width="22" height="22" fill="white"/>
</clipPath>
</defs>
</svg>
