<svg width="668" height="586" viewBox="0 0 668 586" fill="none" xmlns="http://www.w3.org/2000/svg">
<path fill-rule="evenodd" clip-rule="evenodd" d="M617.714 128.462C617.235 128.115 616.101 127.991 615.574 127.887C613.38 127.455 611.121 127.267 608.885 127.267C601.99 127.277 594.983 127.954 588.202 129.125C583.897 129.869 578.693 132.371 574.41 131.012C566.95 128.644 559.41 128.761 552.331 132.141C545.86 135.233 540.947 141.104 538.08 147.448C537.647 148.405 535.893 151.93 535.396 154.306C535.183 154.792 534.979 155.281 534.795 155.777C534.273 157.187 533.805 158.621 533.37 160.058C533.184 160.671 532.717 162.025 533.272 162.287C532.385 163.924 531.599 165.611 530.944 167.352C529.039 172.418 526.957 177.974 526.288 183.343C526.04 185.33 526.031 187.33 526.261 189.322C526.375 190.306 526.327 192.286 526.995 193.034C528.411 194.623 529.139 192.399 528.979 191.34C527.76 183.268 530.114 175.688 532.905 168.1C534.709 163.194 537.674 158.705 540.995 154.64C543.683 151.35 546.567 148.758 550.251 146.577C554.757 143.909 559.575 141.752 564.348 139.589C567.487 138.165 570.63 136.78 573.857 135.554C574.574 135.281 575.703 134.581 576.499 134.579C578.181 134.572 580.565 135.814 582.19 136.276C587.536 137.796 592.949 139.741 598.474 140.517C602.017 141.016 605.337 140.455 608.651 139.274C608.989 139.154 609.557 138.844 610.253 138.401C612.713 137.455 615.04 136.264 617.067 134.545C618.234 133.555 619.294 132.276 620.26 131.105C620.549 130.754 620.677 130.353 620.681 129.972C620.9 129.857 621.045 129.724 621.078 129.568C621.319 128.415 619.121 128.394 617.714 128.462Z" fill="#89C5CC"/>
<path fill-rule="evenodd" clip-rule="evenodd" d="M57.6046 224.545C56.2519 225.641 54.9252 226.76 53.6308 227.924C52.6444 228.811 50.8986 229.873 50.5445 231.217C50.1764 232.614 51.3386 233.922 52.2567 234.766C57.1116 239.233 62.5785 242.253 69.3059 242.755C79.6645 243.528 88.6794 240.883 97.6669 235.678C103.98 232.022 108.162 226.614 109.075 219.311C116.594 222.436 123.865 226.743 130.045 232.029C133.094 234.637 135.72 237.527 138.149 240.73C139.705 242.782 141.209 244.867 142.606 247.032C143.213 247.973 143.83 249.641 144.832 250.183C146.009 250.819 147.431 249.822 147.372 248.513C147.324 247.425 146.148 246.162 145.599 245.272C144.686 243.794 143.759 242.325 142.783 240.888C141.204 238.561 139.572 236.267 137.792 234.089C133.792 229.196 128.702 225.154 123.426 221.708C113.303 215.095 102.195 210.93 89.8781 210.577C82.3049 210.36 75.934 212.947 69.4578 216.811C65.4257 219.217 61.2634 221.582 57.6046 224.545Z" fill="#F1F1EF"/>
<path fill-rule="evenodd" clip-rule="evenodd" d="M155.842 192.563C147.95 184.436 140.03 176.409 131.213 169.253C126.017 165.036 120.54 161.201 115.177 157.202C115.796 157.744 116.403 158.302 116.995 158.873C115.321 157.737 113.129 157.095 111.354 156.043C109.374 154.869 107.482 153.527 105.626 152.174C102.002 149.534 98.4334 146.844 94.7089 144.341C90.5591 141.553 86.2585 138.977 82.0382 136.294C78.4564 134.017 74.8308 131.525 70.999 129.664C68.9106 128.649 66.8173 127.446 64.7203 126.388C64.0185 126.034 56.8972 121.538 56.9151 121.524C57.3088 121.227 60.8924 122.911 61.4465 123.138C63.0654 123.799 64.6135 124.59 66.17 125.378C65.3157 123.693 64.6395 121.923 64.2714 120.059C64.1576 119.484 63.2465 115.297 63.7127 114.945C63.9456 114.77 66.2176 122.262 66.3339 122.982C66.4285 123.567 66.4146 124.41 66.6061 124.964C66.9153 125.859 66.8997 125.588 67.5809 126.092C68.8294 127.016 70.4867 127.594 71.8379 128.366C72.5666 128.773 74.8226 130.386 76.1814 130.846C80.293 132.843 84.4604 135.915 88.3669 138.466C87.3417 136.539 86.5614 134.524 85.9925 132.412C85.8571 131.911 84.397 127.414 84.7512 127.147C85.1499 126.847 87.932 133.715 88.0967 134.365C88.4029 135.573 88.4664 136.917 88.8497 138.092C89.2705 139.382 90.5832 139.839 91.7665 140.591C96.1198 143.357 100.324 146.296 104.458 149.37C108.968 141.348 103.767 131.661 99.384 124.93C96.2246 120.079 91.9712 115.92 87.4803 112.29C81.4867 107.444 74.6293 103.573 67.7803 100.032C59.7998 95.906 51.1743 93.3497 42.2071 92.1687C37.517 91.5509 32.7189 91.5682 27.9815 91.7663C25.6672 91.8629 23.4459 92.1694 21.2281 92.9242C20.2285 93.2648 19.2625 93.694 18.3211 94.1746C17.6058 94.5397 15.8755 94.9252 15.4643 95.4693C12.0789 99.8755 10.3469 104.266 10.6114 109.803C10.8615 115.045 12.5169 120.289 14.7634 124.964C17.2652 130.17 20.483 134.895 24.6912 138.861C27.9019 141.887 31.4915 144.52 35.0574 147.118C47.7402 156.362 63.8199 164.4 80.2463 162.335C85.5636 161.667 90.621 159.807 95.3472 157.281C96.4608 156.685 97.5677 156.083 98.6189 155.38C99.3278 154.906 101.223 152.77 101.935 152.693C102.912 152.586 105.018 154.574 105.934 155.179C112.902 159.778 119.686 164.626 126.329 169.671C133.396 175.038 140.116 180.77 146.639 186.771C149.413 189.324 152.169 191.882 154.863 194.521C155.49 195.135 157.024 197.395 158.161 197.498C158.88 197.562 159.365 196.948 159.262 196.283C159.084 195.126 156.65 193.395 155.842 192.563Z" fill="#E3A803"/>
<path fill-rule="evenodd" clip-rule="evenodd" d="M609.428 161.019C606.371 160.351 602.995 160.402 599.881 160.457C583.181 160.685 566.782 168.591 556.109 181.225C547.023 191.98 544.524 205.352 542.729 218.869C542.552 220.211 542.475 221.545 542.375 222.89C542.353 223.178 542.321 223.436 542.287 223.678C541.581 224.309 541.21 225.045 541.628 225.853C540.073 229.256 538.758 232.746 537.629 236.345C534.306 246.939 530.927 257.734 533.009 268.873C533.495 262.743 534.518 256.474 535.742 250.445C535.812 250.099 535.888 249.755 535.967 249.413C535.975 249.377 535.983 249.341 535.991 249.305C536.424 247.459 536.987 245.667 537.672 243.904C537.679 243.885 537.686 243.866 537.694 243.847C537.784 243.615 537.88 243.384 537.975 243.154C538.171 242.676 538.372 242.199 538.586 241.725C538.658 241.563 538.728 241.4 538.794 241.236C539.791 238.793 540.212 236.04 541.105 233.512C541.319 232.937 541.542 232.364 541.776 231.795C541.79 231.762 541.804 231.728 541.818 231.695C542.45 230.162 543.149 228.648 543.888 227.15C544.289 226.848 544.504 226.099 544.85 225.419C544.922 225.285 545.482 224.391 545.648 223.876C546.083 223.034 546.517 222.192 546.955 221.352C546.942 221.357 546.929 221.362 546.916 221.367C547.354 220.56 547.794 219.756 548.23 218.956C548.326 218.781 548.423 218.605 548.52 218.428C548.677 218.148 548.833 217.867 548.99 217.587C550.452 214.97 552.003 212.404 553.614 209.871C554.189 208.966 555.563 207.67 555.826 206.655C555.836 206.617 555.838 206.582 555.844 206.545C559.339 201.636 563.363 197.108 568.188 193.521C567.605 194.151 566.365 196.291 566.037 196.715C565.034 198.012 563.945 199.219 562.852 200.441C560.894 202.631 558.983 204.889 557.285 207.278C554.179 211.646 551.499 216.243 548.966 220.933C548.942 220.96 548.916 220.986 548.893 221.015C547.62 222.584 546.819 224.955 545.903 226.751C549.529 225.071 553.539 223.977 557.261 222.485C560.973 220.998 564.584 219.342 568.069 217.398C572.703 214.814 577.509 211.896 581.886 208.594C586.903 205.482 591.118 201.199 594.839 196.705C599.242 191.387 603.277 186.022 605.772 179.565C606.998 176.392 607.962 173.084 608.534 169.736C608.559 169.59 608.591 169.432 608.625 169.268C609.21 168.112 609.733 166.93 610.172 165.721C610.869 163.803 612.515 161.693 609.428 161.019Z" fill="#69A1AC"/>
<path fill-rule="evenodd" clip-rule="evenodd" d="M91.4244 183.487C90.4667 182.45 89.3911 181.515 88.1282 180.847C87.8089 180.679 85.4307 179.549 85.2758 179.797C84.915 180.374 91.1367 183.156 91.4244 183.487ZM102.7 176.56C102.692 176.604 103.517 178.003 103.742 178.434C104.22 179.348 104.661 180.281 105.076 181.215C104.461 179.565 103.83 178.034 102.7 176.56ZM45.0319 187.95C44.2376 188.206 43.2827 187.198 44.3129 186.95C45.1465 186.75 45.1056 186.703 45.4799 186.032C45.7838 185.487 45.9711 184.822 46.2378 184.25C46.8035 183.036 47.4452 181.879 48.2329 180.794C49.921 178.469 51.9779 176.466 54.2848 174.778C58.3107 171.832 62.8248 169.14 67.6133 167.787C75.227 165.636 83.8925 165.503 91.5182 166.995C96.2409 167.918 100.557 169.523 103.693 173.326C105.26 175.226 106.491 177.453 107.029 179.904C107.169 180.545 107.143 181.258 107.318 181.885C107.589 182.85 107.469 182.593 108.598 182.78C109.829 182.985 111.06 183.194 112.291 183.407C115.513 183.964 118.753 184.556 121.893 185.461C122.926 185.758 123.936 186.122 124.923 186.544C125.67 186.864 128.643 187.866 129.004 188.836C129.606 190.45 127.591 189.718 126.965 189.367C126.416 189.059 125.853 188.772 125.282 188.507C123.844 187.842 122.345 187.327 120.813 186.917C119.157 186.474 117.467 186.143 115.783 185.812C114.213 185.504 112.638 185.223 111.06 184.955C110.184 184.806 109.306 184.661 108.429 184.516C108.129 184.466 107.601 184.207 107.641 184.596C105.797 184.241 103.802 184.292 101.924 184.194C99.6225 184.074 97.313 183.976 95.0044 184.048C93.3393 184.1 91.6727 184.209 90.0161 184.433C89.0481 184.563 88.0955 184.755 87.1458 184.997C86.6241 185.13 84.5668 185.412 84.2826 185.867C84.4048 185.672 86.6752 185.861 86.9642 185.85C88.1201 185.807 89.2669 185.692 90.4186 185.563C92.5557 185.325 94.6937 185.2 96.8374 185.218C96.8292 185.594 95.3649 186.265 95.0074 186.514C94.2059 187.074 93.4383 187.684 92.7222 188.353C91.4605 189.532 89.9499 190.992 89.0772 192.388C89.3344 191.977 90.6031 191.441 91.0534 191.127C91.7747 190.623 92.4812 190.085 93.1498 189.511C93.7671 188.98 94.343 188.407 94.9094 187.822C95.4757 187.236 96.2443 186.018 96.9886 185.628C97.0335 185.604 97.3579 185.861 97.5421 185.774C97.7278 185.686 97.9593 185.247 98.0065 185.229C98.6992 184.962 100.015 185.294 100.743 185.328C102.632 185.415 104.519 185.529 106.406 185.633C106.991 185.665 107.487 185.532 107.708 185.963C107.944 186.423 107.512 187.632 107.39 188.133C106.935 189.994 106.126 191.662 104.854 193.104C102.472 195.804 99.5337 197.604 96.2146 198.808C83.5019 203.42 69.9772 205.267 57.2683 200.47C52.0069 198.483 44.0831 194.934 45.0319 187.95Z" fill="#89C5CC"/>
<g opacity="0.6">
<path opacity="0.6" fill-rule="evenodd" clip-rule="evenodd" d="M627.111 405.239C635.76 463.785 426.018 501.972 245.488 475.322C64.9581 448.672 -17.8605 344.6 68.2854 289.146C154.431 233.692 618.463 346.692 627.111 405.239Z" fill="#BC956E"/>
</g>
<path d="M258.118 21.5098H129.955C125.995 21.5098 122.785 24.7199 122.785 28.6797V285.005C122.785 288.965 125.995 292.175 129.955 292.175H258.118C262.078 292.175 265.288 288.965 265.288 285.005V28.6797C265.288 24.7199 262.078 21.5098 258.118 21.5098Z" fill="#22252A"/>
<path d="M193.589 275.147C201.013 275.147 207.032 269.128 207.032 261.703C207.032 254.278 201.013 248.259 193.589 248.259C186.164 248.259 180.145 254.278 180.145 261.703C180.145 269.128 186.164 275.147 193.589 275.147Z" fill="#22252A"/>
<path d="M181.937 39.4346C182.927 39.4346 183.73 38.6321 183.73 37.6421C183.73 36.6521 182.927 35.8496 181.937 35.8496C180.947 35.8496 180.145 36.6521 180.145 37.6421C180.145 38.6321 180.947 39.4346 181.937 39.4346Z" fill="#22252A"/>
<path d="M205.24 35.8496H190.004C189.014 35.8496 188.211 36.6521 188.211 37.6421C188.211 38.6321 189.014 39.4346 190.004 39.4346H205.24C206.23 39.4346 207.032 38.6321 207.032 37.6421C207.032 36.6521 206.23 35.8496 205.24 35.8496Z" fill="#22252A"/>
<path d="M249.156 46.6045H138.918C136.938 46.6045 135.333 48.2095 135.333 50.1895V91.4166C135.333 93.3966 136.938 95.0016 138.918 95.0016H249.156C251.136 95.0016 252.741 93.3966 252.741 91.4166V50.1895C252.741 48.2095 251.136 46.6045 249.156 46.6045Z" fill="#22252A"/>
<path d="M233.023 61.1235H172.975C171.49 61.1235 170.286 62.3273 170.286 63.8123V65.6944C170.286 67.1793 171.49 68.3831 172.975 68.3831H233.023C234.508 68.3831 235.712 67.1793 235.712 65.6944V63.8123C235.712 62.3273 234.508 61.1235 233.023 61.1235Z" fill="#2D3035"/>
<path d="M211.513 73.2227H172.975C171.49 73.2227 170.286 74.4264 170.286 75.9114V77.7935C170.286 79.2785 171.49 80.4822 172.975 80.4822H211.513C212.998 80.4822 214.202 79.2785 214.202 77.7935V75.9114C214.202 74.4264 212.998 73.2227 211.513 73.2227Z" fill="#2D3035"/>
<path d="M154.154 81.5582C160.094 81.5582 164.909 76.7431 164.909 70.8033C164.909 64.8635 160.094 60.0483 154.154 60.0483C148.214 60.0483 143.399 64.8635 143.399 70.8033C143.399 76.7431 148.214 81.5582 154.154 81.5582Z" fill="#2D3035"/>
<path d="M249.156 102.171H138.918C136.938 102.171 135.333 103.776 135.333 105.756V136.229C135.333 138.209 136.938 139.814 138.918 139.814H249.156C251.136 139.814 252.741 138.209 252.741 136.229V105.756C252.741 103.776 251.136 102.171 249.156 102.171Z" fill="#22252A"/>
<path d="M233.023 113.464H172.975C171.49 113.464 170.286 114.668 170.286 116.153V116.421C170.286 117.906 171.49 119.11 172.975 119.11H233.023C234.508 119.11 235.712 117.906 235.712 116.421V116.153C235.712 114.668 234.508 113.464 233.023 113.464Z" fill="#2D3035"/>
<path d="M211.513 122.875H172.975C171.49 122.875 170.286 124.078 170.286 125.563V125.832C170.286 127.317 171.49 128.521 172.975 128.521H211.513C212.998 128.521 214.202 127.317 214.202 125.832V125.563C214.202 124.078 212.998 122.875 211.513 122.875Z" fill="#2D3035"/>
<path d="M154.154 131.747C160.094 131.747 164.909 126.932 164.909 120.992C164.909 115.052 160.094 110.237 154.154 110.237C148.214 110.237 143.399 115.052 143.399 120.992C143.399 126.932 148.214 131.747 154.154 131.747Z" fill="#2D3035"/>
<path d="M249.156 146.984H138.918C136.938 146.984 135.333 148.589 135.333 150.569V181.041C135.333 183.021 136.938 184.626 138.918 184.626H249.156C251.136 184.626 252.741 183.021 252.741 181.041V150.569C252.741 148.589 251.136 146.984 249.156 146.984Z" fill="#22252A"/>
<path d="M233.023 158.276H172.975C171.49 158.276 170.286 159.48 170.286 160.965V161.234C170.286 162.719 171.49 163.923 172.975 163.923H233.023C234.508 163.923 235.712 162.719 235.712 161.234V160.965C235.712 159.48 234.508 158.276 233.023 158.276Z" fill="#2D3035"/>
<path d="M211.513 167.687H172.975C171.49 167.687 170.286 168.891 170.286 170.376V170.645C170.286 172.13 171.49 173.333 172.975 173.333H211.513C212.998 173.333 214.202 172.13 214.202 170.645V170.376C214.202 168.891 212.998 167.687 211.513 167.687Z" fill="#2D3035"/>
<path d="M154.154 176.56C160.094 176.56 164.909 171.745 164.909 165.805C164.909 159.865 160.094 155.05 154.154 155.05C148.214 155.05 143.399 159.865 143.399 165.805C143.399 171.745 148.214 176.56 154.154 176.56Z" fill="#5E6165"/>
<path d="M249.156 191.796H138.918C136.938 191.796 135.333 193.401 135.333 195.381V225.853C135.333 227.833 136.938 229.438 138.918 229.438H249.156C251.136 229.438 252.741 227.833 252.741 225.853V195.381C252.741 193.401 251.136 191.796 249.156 191.796Z" fill="#22252A"/>
<path d="M233.023 203.088H172.975C171.49 203.088 170.286 204.292 170.286 205.777V206.046C170.286 207.531 171.49 208.735 172.975 208.735H233.023C234.508 208.735 235.712 207.531 235.712 206.046V205.777C235.712 204.292 234.508 203.088 233.023 203.088Z" fill="#2D3035"/>
<path d="M211.513 212.499H172.975C171.49 212.499 170.286 213.703 170.286 215.188V215.457C170.286 216.942 171.49 218.145 172.975 218.145H211.513C212.998 218.145 214.202 216.942 214.202 215.457V215.188C214.202 213.703 212.998 212.499 211.513 212.499Z" fill="#2D3035"/>
<path d="M154.154 221.372C160.094 221.372 164.909 216.557 164.909 210.617C164.909 204.677 160.094 199.862 154.154 199.862C148.214 199.862 143.399 204.677 143.399 210.617C143.399 216.557 148.214 221.372 154.154 221.372Z" fill="#2D3035"/>
<path fill-rule="evenodd" clip-rule="evenodd" d="M149.798 240.193C148.611 240.193 147.427 240.217 146.241 240.279C145.337 240.326 143.956 240.139 143.191 240.702C142.396 241.287 142.451 242.485 142.575 243.331C143.231 247.805 144.833 251.772 148.184 254.942C153.343 259.822 159.258 262.302 166.257 263.406C171.173 264.182 175.712 263.105 179.331 259.609C181.975 264.516 183.982 269.948 184.988 275.429C185.485 278.134 185.636 280.806 185.549 283.56C185.493 285.325 185.396 287.084 185.206 288.84C185.124 289.603 184.735 290.758 185.034 291.479C185.385 292.326 186.567 292.408 187.097 291.686C187.539 291.085 187.458 289.905 187.549 289.194C187.699 288.012 187.838 286.83 187.938 285.644C188.1 283.723 188.219 281.797 188.211 279.869C188.19 275.537 187.227 271.188 185.91 267.076C183.382 259.187 179.282 252.175 172.904 246.674C168.982 243.292 164.494 241.922 159.402 241.187C156.232 240.729 153.01 240.193 149.798 240.193Z" fill="#89C5CC"/>
<path fill-rule="evenodd" clip-rule="evenodd" d="M168.11 271.562C155.294 271.562 146.663 281.89 142.582 292.625C141.044 296.671 140.683 301.115 140.09 305.363C139.9 306.727 139.971 308.804 139.417 310.019C139.216 310.46 138.756 310.618 138.976 311.218C139.109 311.582 139.371 311.804 139.763 311.876C140.57 312.025 141.709 311.147 142.4 310.8C148.133 307.925 151.899 303.48 154.972 298.041C156.876 294.67 158.809 291.171 159.94 287.47C160.631 285.21 161.034 282.829 161.27 280.483C161.363 279.56 161.453 278.614 161.447 277.685C161.442 276.763 161.013 276.275 160.705 275.473C164.981 273.854 169.807 273.413 174.139 275.091C178.145 276.642 181.473 279.64 183.336 283.406C183.821 284.385 184.194 285.418 184.466 286.472C184.644 287.162 184.653 288.057 184.982 288.681C185.782 290.193 187.466 289.182 187.304 287.774C186.853 283.847 184.607 279.905 181.736 277.175C178.114 273.732 173.206 271.562 168.11 271.562Z" fill="#89C5CC"/>
<path d="M317.333 45H189.17C185.21 45 182 48.2101 182 52.1699V308.495C182 312.455 185.21 315.665 189.17 315.665H317.333C321.293 315.665 324.503 312.455 324.503 308.495V52.1699C324.503 48.2101 321.293 45 317.333 45Z" fill="#2F3237"/>
<path d="M252.741 298.449C260.165 298.449 266.184 292.43 266.184 285.005C266.184 277.58 260.165 271.562 252.741 271.562C245.316 271.562 239.297 277.58 239.297 285.005C239.297 292.43 245.316 298.449 252.741 298.449Z" fill="white"/>
<path d="M241.089 62.7368C242.079 62.7368 242.882 61.9343 242.882 60.9443C242.882 59.9544 242.079 59.1519 241.089 59.1519C240.1 59.1519 239.297 59.9544 239.297 60.9443C239.297 61.9343 240.1 62.7368 241.089 62.7368Z" fill="white"/>
<path d="M264.392 59.1519H249.156C248.166 59.1519 247.363 59.9544 247.363 60.9444C247.363 61.9343 248.166 62.7368 249.156 62.7368H264.392C265.382 62.7368 266.184 61.9343 266.184 60.9444C266.184 59.9544 265.382 59.1519 264.392 59.1519Z" fill="white"/>
<path d="M308.308 69.9072H198.07C196.09 69.9072 194.485 71.5123 194.485 73.4922V114.719C194.485 116.699 196.09 118.304 198.07 118.304H308.308C310.288 118.304 311.893 116.699 311.893 114.719V73.4922C311.893 71.5123 310.288 69.9072 308.308 69.9072Z" fill="white"/>
<path d="M265.288 84.4263H205.24C203.755 84.4263 202.551 85.6301 202.551 87.115V88.9971C202.551 90.4821 203.755 91.6859 205.24 91.6859H265.288C266.773 91.6859 267.977 90.4821 267.977 88.9971V87.115C267.977 85.6301 266.773 84.4263 265.288 84.4263Z" fill="#757679"/>
<path d="M243.778 96.5254H205.24C203.755 96.5254 202.551 97.7292 202.551 99.2141V101.096C202.551 102.581 203.755 103.785 205.24 103.785H243.778C245.263 103.785 246.467 102.581 246.467 101.096V99.2141C246.467 97.7292 245.263 96.5254 243.778 96.5254Z" fill="#757679"/>
<path d="M299.345 100.379C302.81 100.379 305.619 97.5706 305.619 94.1057C305.619 90.6409 302.81 87.832 299.345 87.832C295.88 87.832 293.072 90.6409 293.072 94.1057C293.072 97.5706 295.88 100.379 299.345 100.379Z" fill="#757679"/>
<path d="M299.345 96.7944C300.83 96.7944 302.034 95.5907 302.034 94.1057C302.034 92.6208 300.83 91.417 299.345 91.417C297.86 91.417 296.656 92.6208 296.656 94.1057C296.656 95.5907 297.86 96.7944 299.345 96.7944Z" fill="#F2F2F2"/>
<path d="M308.308 125.474H198.07C196.09 125.474 194.485 127.079 194.485 129.059V159.531C194.485 161.511 196.09 163.116 198.07 163.116H308.308C310.288 163.116 311.893 161.511 311.893 159.531V129.059C311.893 127.079 310.288 125.474 308.308 125.474Z" fill="white"/>
<path d="M292.175 136.767H232.127C230.642 136.767 229.438 137.97 229.438 139.455V139.724C229.438 141.209 230.642 142.413 232.127 142.413H292.175C293.66 142.413 294.864 141.209 294.864 139.724V139.455C294.864 137.97 293.66 136.767 292.175 136.767Z" fill="#757679"/>
<path d="M270.665 146.177H232.127C230.642 146.177 229.438 147.381 229.438 148.866V149.135C229.438 150.62 230.642 151.824 232.127 151.824H270.665C272.15 151.824 273.354 150.62 273.354 149.135V148.866C273.354 147.381 272.15 146.177 270.665 146.177Z" fill="#757679"/>
<path d="M213.306 155.05C219.246 155.05 224.061 150.235 224.061 144.295C224.061 138.355 219.246 133.54 213.306 133.54C207.366 133.54 202.551 138.355 202.551 144.295C202.551 150.235 207.366 155.05 213.306 155.05Z" fill="#C5CFD6"/>
<path d="M308.308 170.287H198.07C196.09 170.287 194.485 171.892 194.485 173.872V204.344C194.485 206.324 196.09 207.929 198.07 207.929H308.308C310.288 207.929 311.893 206.324 311.893 204.344V173.872C311.893 171.892 310.288 170.287 308.308 170.287Z" fill="white"/>
<path d="M265.288 181.579H205.24C203.755 181.579 202.551 182.783 202.551 184.268V184.537C202.551 186.022 203.755 187.225 205.24 187.225H265.288C266.773 187.225 267.977 186.022 267.977 184.537V184.268C267.977 182.783 266.773 181.579 265.288 181.579Z" fill="#757679"/>
<path d="M243.778 190.99H205.24C203.755 190.99 202.551 192.194 202.551 193.678V193.947C202.551 195.432 203.755 196.636 205.24 196.636H243.778C245.263 196.636 246.467 195.432 246.467 193.947V193.678C246.467 192.194 245.263 190.99 243.778 190.99Z" fill="#AFB9C5"/>
<path d="M299.345 195.381C302.81 195.381 305.619 192.573 305.619 189.108C305.619 185.643 302.81 182.834 299.345 182.834C295.88 182.834 293.072 185.643 293.072 189.108C293.072 192.573 295.88 195.381 299.345 195.381Z" fill="#757679"/>
<path d="M299.345 191.796C300.83 191.796 302.034 190.593 302.034 189.108C302.034 187.623 300.83 186.419 299.345 186.419C297.86 186.419 296.656 187.623 296.656 189.108C296.656 190.593 297.86 191.796 299.345 191.796Z" fill="#F2F2F2"/>
<path d="M308.308 215.099H198.07C196.09 215.099 194.485 216.704 194.485 218.684V249.156C194.485 251.136 196.09 252.741 198.07 252.741H308.308C310.288 252.741 311.893 251.136 311.893 249.156V218.684C311.893 216.704 310.288 215.099 308.308 215.099Z" fill="white"/>
<path d="M292.175 226.391H232.127C230.642 226.391 229.438 227.595 229.438 229.08V229.349C229.438 230.834 230.642 232.037 232.127 232.037H292.175C293.66 232.037 294.864 230.834 294.864 229.349V229.08C294.864 227.595 293.66 226.391 292.175 226.391Z" fill="#757679"/>
<path d="M270.665 235.802H232.127C230.642 235.802 229.438 237.006 229.438 238.491V238.759C229.438 240.244 230.642 241.448 232.127 241.448H270.665C272.15 241.448 273.354 240.244 273.354 238.759V238.491C273.354 237.006 272.15 235.802 270.665 235.802Z" fill="#757679"/>
<path d="M213.306 244.675C219.246 244.675 224.061 239.86 224.061 233.92C224.061 227.98 219.246 223.165 213.306 223.165C207.366 223.165 202.551 227.98 202.551 233.92C202.551 239.86 207.366 244.675 213.306 244.675Z" fill="#C5CFD6"/>
<path d="M534.161 67.2183H248.259C244.3 67.2183 241.089 70.4284 241.089 74.3882V370.148C241.089 374.108 244.3 377.318 248.259 377.318H534.161C538.121 377.318 541.331 374.108 541.331 370.148V74.3882C541.331 70.4284 538.121 67.2183 534.161 67.2183Z" fill="#22252A"/>
<path d="M519.821 105.757H471.424C467.464 105.757 464.254 108.967 464.254 112.927V171.183C464.254 175.143 467.464 178.353 471.424 178.353H519.821C523.781 178.353 526.991 175.143 526.991 171.183V112.927C526.991 108.967 523.781 105.757 519.821 105.757Z" fill="white"/>
<path d="M495.623 147.88C503.542 147.88 509.962 141.46 509.962 133.54C509.962 125.62 503.542 119.2 495.623 119.2C487.703 119.2 481.283 125.62 481.283 133.54C481.283 141.46 487.703 147.88 495.623 147.88Z" fill="#5E6165"/>
<path d="M515.34 151.465H475.905C474.42 151.465 473.216 152.669 473.216 154.154C473.216 155.639 474.42 156.842 475.905 156.842H515.34C516.825 156.842 518.029 155.639 518.029 154.154C518.029 152.669 516.825 151.465 515.34 151.465Z" fill="#5E6165"/>
<path d="M508.17 160.427H483.075C481.59 160.427 480.386 161.631 480.386 163.116C480.386 164.601 481.59 165.805 483.075 165.805H508.17C509.655 165.805 510.859 164.601 510.859 163.116C510.859 161.631 509.655 160.427 508.17 160.427Z" fill="#5E6165"/>
<path fill-rule="evenodd" clip-rule="evenodd" d="M248.259 67.2183H534.161C538.121 67.2183 541.331 70.4284 541.331 74.3882V91.4168H241.089V74.3882C241.089 70.4284 244.3 67.2183 248.259 67.2183Z" fill="#5E6165"/>
<path d="M252.741 83.3506C254.721 83.3506 256.326 81.7456 256.326 79.7656C256.326 77.7857 254.721 76.1807 252.741 76.1807C250.761 76.1807 249.156 77.7857 249.156 79.7656C249.156 81.7456 250.761 83.3506 252.741 83.3506Z" fill="#22252A"/>
<path d="M263.495 83.3506C265.475 83.3506 267.08 81.7455 267.08 79.7656C267.08 77.7857 265.475 76.1807 263.495 76.1807C261.516 76.1807 259.911 77.7857 259.911 79.7656C259.911 81.7455 261.516 83.3506 263.495 83.3506Z" fill="#22252A"/>
<path d="M274.25 83.3506C276.23 83.3506 277.835 81.7455 277.835 79.7656C277.835 77.7857 276.23 76.1807 274.25 76.1807C272.271 76.1807 270.665 77.7857 270.665 79.7656C270.665 81.7455 272.271 83.3506 274.25 83.3506Z" fill="#22252A"/>
<path d="M519.821 185.522H471.424C467.464 185.522 464.254 188.733 464.254 192.692V352.224C464.254 356.184 467.464 359.394 471.424 359.394H519.821C523.781 359.394 526.991 356.184 526.991 352.224V192.692C526.991 188.733 523.781 185.522 519.821 185.522Z" fill="white"/>
<path d="M507.274 201.655H483.971C481.991 201.655 480.386 203.26 480.386 205.24V221.372C480.386 223.352 481.991 224.957 483.971 224.957H507.274C509.254 224.957 510.859 223.352 510.859 221.372V205.24C510.859 203.26 509.254 201.655 507.274 201.655Z" fill="#5E6165"/>
<path d="M507.274 232.127H483.971C481.992 232.127 480.386 233.732 480.386 235.712V250.948C480.386 252.928 481.992 254.533 483.971 254.533H507.274C509.254 254.533 510.859 252.928 510.859 250.948V235.712C510.859 233.732 509.254 232.127 507.274 232.127Z" fill="#2F3237"/>
<path d="M507.274 261.703H483.971C481.992 261.703 480.386 263.308 480.386 265.288V280.524C480.386 282.504 481.992 284.109 483.971 284.109H507.274C509.254 284.109 510.859 282.504 510.859 280.524V265.288C510.859 263.308 509.254 261.703 507.274 261.703Z" fill="#5E6165"/>
<path d="M507.274 320.855H483.971C481.992 320.855 480.386 322.46 480.386 324.44V339.676C480.386 341.656 481.992 343.261 483.971 343.261H507.274C509.254 343.261 510.859 341.656 510.859 339.676V324.44C510.859 322.46 509.254 320.855 507.274 320.855Z" fill="#5E6165"/>
<path d="M507.274 291.279H483.971C481.992 291.279 480.386 292.884 480.386 294.864V310.1C480.386 312.08 481.992 313.685 483.971 313.685H507.274C509.254 313.685 510.859 312.08 510.859 310.1V294.864C510.859 292.884 509.254 291.279 507.274 291.279Z" fill="#5E6165"/>
<path d="M453.499 106.653H259.014C257.034 106.653 255.429 108.258 255.429 110.238V145.191C255.429 147.171 257.034 148.776 259.014 148.776H453.499C455.479 148.776 457.084 147.171 457.084 145.191V110.238C457.084 108.258 455.479 106.653 453.499 106.653Z" fill="white"/>
<path d="M410.479 119.29H266.184C264.699 119.29 263.495 120.494 263.495 121.979V122.92C263.495 124.405 264.699 125.609 266.184 125.609H410.479C411.964 125.609 413.168 124.405 413.168 122.92V121.979C413.168 120.494 411.964 119.29 410.479 119.29Z" fill="#5E6165"/>
<path d="M361.272 129.821H266.184C264.699 129.821 263.495 131.025 263.495 132.51V133.451C263.495 134.936 264.699 136.139 266.184 136.139H361.272C362.757 136.139 363.961 134.936 363.961 133.451V132.51C363.961 131.025 362.757 129.821 361.272 129.821Z" fill="#5E6165"/>
<path d="M435.533 133.988C438.998 133.988 441.807 131.18 441.807 127.715C441.807 124.25 438.998 121.441 435.533 121.441C432.068 121.441 429.26 124.25 429.26 127.715C429.26 131.18 432.068 133.988 435.533 133.988Z" fill="#5E6165"/>
<path d="M435.533 130.403C437.018 130.403 438.222 129.2 438.222 127.715C438.222 126.23 437.018 125.026 435.533 125.026C434.048 125.026 432.844 126.23 432.844 127.715C432.844 129.2 434.048 130.403 435.533 130.403Z" fill="#22252A"/>
<path d="M453.499 155.946H259.014C257.034 155.946 255.429 157.551 255.429 159.531V187.315C255.429 189.295 257.034 190.9 259.014 190.9H453.499C455.479 190.9 457.084 189.295 457.084 187.315V159.531C457.084 157.551 455.479 155.946 453.499 155.946Z" fill="white"/>
<path d="M410.547 166.432H266.117C264.669 166.432 263.496 167.606 263.496 169.054C263.496 170.501 264.669 171.675 266.117 171.675H410.547C411.994 171.675 413.168 170.501 413.168 169.054C413.168 167.606 411.994 166.432 410.547 166.432Z" fill="#5E6165"/>
<path d="M361.339 175.17H266.117C264.669 175.17 263.495 176.344 263.495 177.792C263.495 179.24 264.669 180.413 266.117 180.413H361.339C362.787 180.413 363.961 179.24 363.961 177.792C363.961 176.344 362.787 175.17 361.339 175.17Z" fill="#5E6165"/>
<path d="M435.533 179.697C438.998 179.697 441.807 176.888 441.807 173.423C441.807 169.958 438.998 167.149 435.533 167.149C432.068 167.149 429.26 169.958 429.26 173.423C429.26 176.888 432.068 179.697 435.533 179.697Z" fill="#5E6165"/>
<path d="M435.533 176.112C437.018 176.112 438.222 174.908 438.222 173.423C438.222 171.938 437.018 170.734 435.533 170.734C434.048 170.734 432.844 171.938 432.844 173.423C432.844 174.908 434.048 176.112 435.533 176.112Z" fill="#22252A"/>
<path d="M453.499 198.07H259.014C257.034 198.07 255.429 199.675 255.429 201.655V229.438C255.429 231.418 257.034 233.023 259.014 233.023H453.499C455.479 233.023 457.084 231.418 457.084 229.438V201.655C457.084 199.675 455.479 198.07 453.499 198.07Z" fill="white"/>
<path d="M410.547 208.556H266.117C264.669 208.556 263.496 209.729 263.496 211.177C263.496 212.625 264.669 213.799 266.117 213.799H410.547C411.994 213.799 413.168 212.625 413.168 211.177C413.168 209.729 411.994 208.556 410.547 208.556Z" fill="#5E6165"/>
<path d="M361.339 217.294H266.117C264.669 217.294 263.495 218.468 263.495 219.915C263.495 221.363 264.669 222.537 266.117 222.537H361.339C362.787 222.537 363.961 221.363 363.961 219.915C363.961 218.468 362.787 217.294 361.339 217.294Z" fill="#5E6165"/>
<path d="M435.533 221.82C438.998 221.82 441.807 219.011 441.807 215.547C441.807 212.082 438.998 209.273 435.533 209.273C432.068 209.273 429.26 212.082 429.26 215.547C429.26 219.011 432.068 221.82 435.533 221.82Z" fill="#5E6165"/>
<path d="M435.533 218.235C437.018 218.235 438.222 217.032 438.222 215.547C438.222 214.062 437.018 212.858 435.533 212.858C434.048 212.858 432.844 214.062 432.844 215.547C432.844 217.032 434.048 218.235 435.533 218.235Z" fill="#2F3237"/>
<path d="M453.499 324.44H259.014C257.034 324.44 255.429 326.045 255.429 328.025V355.808C255.429 357.788 257.034 359.393 259.014 359.393H453.499C455.479 359.393 457.084 357.788 457.084 355.808V328.025C457.084 326.045 455.479 324.44 453.499 324.44Z" fill="white"/>
<path d="M410.547 334.926H266.117C264.669 334.926 263.496 336.099 263.496 337.547C263.496 338.995 264.669 340.169 266.117 340.169H410.547C411.994 340.169 413.168 338.995 413.168 337.547C413.168 336.099 411.994 334.926 410.547 334.926Z" fill="#5E6165"/>
<path d="M361.339 343.664H266.117C264.669 343.664 263.495 344.838 263.495 346.286C263.495 347.733 264.669 348.907 266.117 348.907H361.339C362.787 348.907 363.961 347.733 363.961 346.286C363.961 344.838 362.787 343.664 361.339 343.664Z" fill="#5E6165"/>
<path d="M435.533 348.19C438.998 348.19 441.807 345.382 441.807 341.917C441.807 338.452 438.998 335.643 435.533 335.643C432.068 335.643 429.26 338.452 429.26 341.917C429.26 345.382 432.068 348.19 435.533 348.19Z" fill="#5E6165"/>
<path d="M435.533 344.605C437.018 344.605 438.222 343.402 438.222 341.917C438.222 340.432 437.018 339.228 435.533 339.228C434.048 339.228 432.844 340.432 432.844 341.917C432.844 343.402 434.048 344.605 435.533 344.605Z" fill="#22252A"/>
<path d="M453.499 282.316H259.014C257.034 282.316 255.429 283.921 255.429 285.901V313.685C255.429 315.665 257.034 317.27 259.014 317.27H453.499C455.479 317.27 457.084 315.665 457.084 313.685V285.901C457.084 283.921 455.479 282.316 453.499 282.316Z" fill="white"/>
<path d="M410.547 292.802H266.117C264.669 292.802 263.496 293.976 263.496 295.424C263.496 296.872 264.669 298.045 266.117 298.045H410.547C411.994 298.045 413.168 296.872 413.168 295.424C413.168 293.976 411.994 292.802 410.547 292.802Z" fill="#5E6165"/>
<path d="M361.339 301.541H266.117C264.669 301.541 263.495 302.714 263.495 304.162C263.495 305.61 264.669 306.784 266.117 306.784H361.339C362.787 306.784 363.961 305.61 363.961 304.162C363.961 302.714 362.787 301.541 361.339 301.541Z" fill="#5E6165"/>
<path d="M435.533 306.067C438.998 306.067 441.807 303.258 441.807 299.793C441.807 296.328 438.998 293.52 435.533 293.52C432.068 293.52 429.26 296.328 429.26 299.793C429.26 303.258 432.068 306.067 435.533 306.067Z" fill="#5E6165"/>
<path d="M435.533 302.482C437.018 302.482 438.222 301.278 438.222 299.793C438.222 298.308 437.018 297.104 435.533 297.104C434.048 297.104 432.844 298.308 432.844 299.793C432.844 301.278 434.048 302.482 435.533 302.482Z" fill="#22252A"/>
<path d="M453.499 240.193H259.014C257.034 240.193 255.429 241.798 255.429 243.778V271.561C255.429 273.541 257.034 275.146 259.014 275.146H453.499C455.479 275.146 457.084 273.541 457.084 271.561V243.778C457.084 241.798 455.479 240.193 453.499 240.193Z" fill="white"/>
<path d="M410.547 250.679H266.117C264.669 250.679 263.496 251.852 263.496 253.3C263.496 254.748 264.669 255.922 266.117 255.922H410.547C411.994 255.922 413.168 254.748 413.168 253.3C413.168 251.852 411.994 250.679 410.547 250.679Z" fill="#5E6165"/>
<path d="M361.339 259.417H266.117C264.669 259.417 263.495 260.591 263.495 262.039C263.495 263.486 264.669 264.66 266.117 264.66H361.339C362.787 264.66 363.961 263.486 363.961 262.039C363.961 260.591 362.787 259.417 361.339 259.417Z" fill="#5E6165"/>
<path d="M435.533 263.943C438.998 263.943 441.807 261.135 441.807 257.67C441.807 254.205 438.998 251.396 435.533 251.396C432.068 251.396 429.26 254.205 429.26 257.67C429.26 261.135 432.068 263.943 435.533 263.943Z" fill="#5E6165"/>
<path d="M435.533 260.359C437.018 260.359 438.222 259.155 438.222 257.67C438.222 256.185 437.018 254.981 435.533 254.981C434.048 254.981 432.844 256.185 432.844 257.67C432.844 259.155 434.048 260.359 435.533 260.359Z" fill="#22252A"/>
<path fill-rule="evenodd" clip-rule="evenodd" d="M615.706 219.916C612.171 217.519 607.47 216.891 603.24 216.891C586.717 216.891 571.186 223.021 557.769 232.155C550.417 237.16 543.841 243.534 538.034 250.17C534.683 254.001 531.695 258.145 529.579 262.754C528.151 265.865 527.171 269.106 526.507 272.45C525.698 276.524 525.055 280.681 524.764 284.823C524.649 286.454 523.701 295.11 526.413 295.256C526.398 295.47 526.394 295.673 526.411 295.855C520.522 305.063 516.884 315.854 513.51 326.085C510.574 334.988 507.959 343.966 506.261 353.176C504.025 365.302 502.557 377.61 501.859 389.91C501.709 392.553 501.606 395.198 501.517 397.845C501.442 400.103 501.366 402.361 501.292 404.618C501.209 407.148 500.764 410.061 501.166 412.577C501.516 414.767 503.412 414.436 503.496 412.256C503.597 409.623 503.58 406.986 503.696 404.351C503.849 400.855 504.007 397.359 504.178 393.863C505.369 369.582 509.837 345.659 518.083 322.723C521.421 313.441 525.245 304.655 530.159 296.069C534.48 288.52 539.678 281.212 544.991 274.405C550.155 267.79 555.524 261.329 561.851 255.725C566.985 251.177 572.633 247.215 578.439 243.529C585.813 238.847 593.172 234.279 601.16 230.685C605.312 228.817 609.542 227.144 613.727 225.352C614.479 225.029 615.287 224.716 616.011 224.343C618.426 223.097 617.631 221.221 615.706 219.916Z" fill="#C1DEE2"/>
<path fill-rule="evenodd" clip-rule="evenodd" d="M549.234 304.723C555.935 304.723 561.899 305.593 568.073 308.257C573.403 310.555 578.261 313.598 582.977 316.911C589.61 321.57 594.835 326.993 598.493 334.178C600.678 338.47 602.281 344.544 600.813 349.226C599.085 354.74 594.338 359.339 588.087 358.367C584.222 357.767 580.679 355.208 577.741 352.8C574.226 349.919 571.413 346.454 569.09 342.607C565.3 336.331 563.074 329.236 559.855 322.678C558.327 319.565 556.851 316.43 555.022 313.472C554.116 312.007 553.152 310.556 551.778 309.467C551.042 308.885 547.943 307.877 549.128 306.57C531.75 306.798 516.354 320.145 513.018 336.665C512.707 338.205 512.464 339.758 512.208 341.307C512.046 342.285 512.111 345.893 511.237 346.518C509.308 347.897 510.119 343.708 510.202 343.105C510.415 341.547 510.644 339.99 510.883 338.435C512.186 329.98 515.95 322.12 522.227 316.09C529.406 309.195 539.091 304.723 549.234 304.723Z" fill="#89C5CC"/>
<path fill-rule="evenodd" clip-rule="evenodd" d="M66.2663 283.873C82.996 311.939 102.481 339.115 114.182 369.801C113.711 366.184 113.211 362.571 112.651 358.963C109.682 339.836 105.992 320.849 102.114 301.886C100.14 292.23 98.0511 282.61 95.909 272.99C94.757 267.824 93.619 262.654 92.4432 257.492C92.1584 256.241 91.9137 254.057 91.5571 251.844C102.929 289.161 113.895 326.506 121.917 364.719C122.969 369.734 123.865 374.741 124.599 379.738C124.85 378.598 125.097 377.458 125.368 376.321C128.613 362.691 133.482 349.171 139.279 336.427C142.05 330.332 145.233 324.371 148.981 318.817C151.318 315.355 156.83 311.239 158.962 307.693C147.302 329.079 143.091 355.837 136.359 379.087C134.716 384.761 133.062 390.425 131.442 396.1C141.595 375.738 157.347 359.009 179.249 351.76C152.738 369.276 136.837 399.952 126.121 431.326C126.086 431.698 126.044 432.07 126.008 432.443C129.161 426.458 133.133 421.046 138.516 417.255C150.037 409.139 162.818 411.503 173.994 418.465C165.223 412.889 149.37 417.966 141.99 423.633C136.707 427.69 132.191 433.132 128.27 438.442C127.331 439.714 126.049 441.199 124.695 442.784C122.796 455.108 119.702 467.348 115.322 479.49C116.045 476.005 115.522 470.431 115.722 467.833C115.744 467.552 115.762 467.27 115.784 466.99C115.118 469.648 114.475 472.277 113.855 474.863C115.086 469.928 115.756 464.777 116.278 459.572C116.412 457.335 116.544 455.099 116.682 452.862C116.638 448.618 116.464 444.356 116.168 440.088C115.119 435.94 113.945 432.027 112.977 428.773C109.484 417.031 104.362 405.783 98.0587 395.289C92.3074 385.713 85.4231 377.038 77.4755 369.194C73.1911 364.966 68.7072 360.939 64.2865 356.857C62.688 355.381 59.8307 351.752 57.3596 349.86C75.3566 359.782 93.8804 370.516 107.009 386.503C105.47 380.592 103.798 374.765 102.03 369.055C93.058 340.083 81.7296 310.058 66.2663 283.873Z" fill="#06A68B"/>
<path fill-rule="evenodd" clip-rule="evenodd" d="M84.2469 442.744C84.2469 474.918 86.7947 501 120.993 501C155.191 501 157.739 474.918 157.739 442.744" fill="#E3A803"/>
<path d="M470.528 31.3684C470.528 29.8835 469.324 28.6797 467.839 28.6797C466.354 28.6797 465.15 29.8835 465.15 31.3684V48.3971C465.15 49.882 466.354 51.0858 467.839 51.0858C469.324 51.0858 470.528 49.882 470.528 48.3971V31.3684Z" fill="#DDE3E9"/>
<path d="M483.075 17.0286C483.075 15.5436 481.871 14.3398 480.386 14.3398C478.902 14.3398 477.698 15.5436 477.698 17.0286V48.3971C477.698 49.882 478.902 51.0858 480.386 51.0858C481.871 51.0858 483.075 49.882 483.075 48.3971V17.0286Z" fill="#DDE3E9"/>
<path d="M495.623 9.85865C495.623 8.37371 494.419 7.16992 492.934 7.16992C491.449 7.16992 490.245 8.37371 490.245 9.85865V48.3971C490.245 49.8821 491.449 51.0858 492.934 51.0858C494.419 51.0858 495.623 49.8821 495.623 48.3971V9.85865Z" fill="#DDE3E9"/>
<path d="M508.17 17.0286C508.17 15.5436 506.966 14.3398 505.481 14.3398C503.996 14.3398 502.792 15.5436 502.792 17.0286V48.3971C502.792 49.882 503.996 51.0858 505.481 51.0858C506.966 51.0858 508.17 49.882 508.17 48.3971V17.0286Z" fill="#DDE3E9"/>
<path d="M520.717 2.68873C520.717 1.20379 519.514 0 518.029 0C516.544 0 515.34 1.20379 515.34 2.68873V48.3971C515.34 49.8821 516.544 51.0859 518.029 51.0859C519.514 51.0859 520.717 49.8821 520.717 48.3971V2.68873Z" fill="#C5CFD6"/>
<path fill-rule="evenodd" clip-rule="evenodd" d="M24.1985 274.48C24.1985 264.497 32.2665 256.326 42.1234 256.326V274.48L29.8736 287.694C26.389 284.464 24.1985 279.724 24.1985 274.48Z" fill="#2D3035"/>
<path fill-rule="evenodd" clip-rule="evenodd" d="M41.6492 274.25H59.7508C59.7508 278.93 57.842 283.314 54.8244 286.5C51.5055 289.985 46.7792 292.175 41.6492 292.175C36.9237 292.175 32.5984 290.285 29.2785 287.297L41.6492 274.25Z" fill="#F1F1EF"/>
<path fill-rule="evenodd" clip-rule="evenodd" d="M60.0483 274.251C60.0483 264.394 51.9803 256.326 42.1234 256.326V274.251H60.0483ZM33.161 256.326L40.3309 272.458L24.1985 265.288C25.7939 261.106 29.3761 257.921 33.161 256.326Z" fill="#E3A803"/>
<path fill-rule="evenodd" clip-rule="evenodd" d="M607.444 282.477C605.721 284.306 603.282 285.454 600.568 285.454C595.355 285.454 591.128 281.24 591.128 276.043C591.128 270.846 595.355 266.633 600.568 266.633V249.156C585.736 249.156 573.596 261.258 573.596 276.043C573.596 290.828 585.736 302.93 600.568 302.93C608.359 302.93 615.401 299.645 620.2 294.418L607.444 282.477Z" fill="#F1F1EF"/>
<path fill-rule="evenodd" clip-rule="evenodd" d="M600.483 249.156V266.632C605.68 266.632 609.894 270.846 609.894 276.043H627.37C627.37 261.258 615.268 249.156 600.483 249.156Z" fill="#E3A803"/>
<path fill-rule="evenodd" clip-rule="evenodd" d="M609.532 276.043C609.532 279.096 608.094 281.811 605.86 283.563L616.85 297.553C623.247 292.544 627.37 284.781 627.37 276.043H609.532Z" fill="#2D3035"/>
<path fill-rule="evenodd" clip-rule="evenodd" d="M436.516 35.4053C435.192 36.807 433.315 37.6872 431.228 37.6872C427.217 37.6872 423.966 34.4571 423.966 30.4725C423.966 26.4879 427.217 23.2577 431.228 23.2577V9.85889C419.818 9.85889 410.479 19.1371 410.479 30.4725C410.479 41.8079 419.818 51.0861 431.228 51.0861C437.221 51.0861 442.637 48.5671 446.329 44.5598L436.516 35.4053Z" fill="white"/>
<path fill-rule="evenodd" clip-rule="evenodd" d="M431.093 9.85889V23.2577C435.078 23.2577 438.308 26.4879 438.308 30.4725H451.707C451.707 19.1371 442.428 9.85889 431.093 9.85889Z" fill="#23262B"/>
<path fill-rule="evenodd" clip-rule="evenodd" d="M438.328 30.4727C438.328 32.7628 437.25 34.7984 435.574 36.1128L443.816 46.605C448.614 42.8487 451.707 37.026 451.707 30.4727H438.328Z" fill="#E3A803"/>
<path fill-rule="evenodd" clip-rule="evenodd" d="M110.244 51.074C110.241 51.083 110.237 51.0921 110.232 51.103C110.237 51.0939 110.244 51.0577 110.244 51.074Z" fill="#BC956E"/>
<path fill-rule="evenodd" clip-rule="evenodd" d="M110.236 51.0869C110.236 51.0886 110.234 51.0921 110.234 51.0955C110.234 51.0869 110.25 51.061 110.236 51.0869Z" fill="#BC956E"/>
<path fill-rule="evenodd" clip-rule="evenodd" d="M110.298 50.9355C110.286 50.9715 110.27 51.0056 110.255 51.0415C110.262 51.0236 110.27 51.0092 110.277 50.9912C110.09 51.4582 110.209 51.1547 110.298 50.9355Z" fill="#BC956E"/>
<path fill-rule="evenodd" clip-rule="evenodd" d="M110.258 51.0439C110.251 51.0601 110.244 51.0781 110.236 51.0942C110.184 51.1948 110.258 51.0439 110.258 51.0439Z" fill="#BC956E"/>
<path fill-rule="evenodd" clip-rule="evenodd" d="M110.237 51.0885C110.237 51.0865 110.237 51.0865 110.239 51.0845C110.237 51.0865 110.237 51.0865 110.237 51.0885Z" fill="#BC956E"/>
<path fill-rule="evenodd" clip-rule="evenodd" d="M110.229 51.101C110.218 51.1228 110.28 51.0177 110.229 51.101V51.101Z" fill="#BC956E"/>
<path fill-rule="evenodd" clip-rule="evenodd" d="M110.236 51.0885L110.24 51.0845C110.238 51.0865 110.238 51.0885 110.236 51.0885Z" fill="#BC956E"/>
<path d="M148.776 4.48145H70.8032C68.8233 4.48145 67.2183 6.08649 67.2183 8.06642V57.3598C67.2183 59.3397 68.8233 60.9448 70.8032 60.9448H148.776C150.756 60.9448 152.361 59.3397 152.361 57.3598V8.06642C152.361 6.08649 150.756 4.48145 148.776 4.48145Z" fill="#F1F1EF"/>
<path fill-rule="evenodd" clip-rule="evenodd" d="M99.483 20.6138L74.3882 60.9447H124.578L99.483 20.6138Z" fill="#E3A803"/>
<path fill-rule="evenodd" clip-rule="evenodd" d="M124.13 31.3687L102.172 60.9447H146.088L124.13 31.3687Z" fill="#BC956E"/>
<path d="M133.54 31.3687C137.995 31.3687 141.606 27.7574 141.606 23.3025C141.606 18.8477 137.995 15.2363 133.54 15.2363C129.085 15.2363 125.474 18.8477 125.474 23.3025C125.474 27.7574 129.085 31.3687 133.54 31.3687Z" fill="#06A68B"/>
<path fill-rule="evenodd" clip-rule="evenodd" d="M537.74 433.77C537.743 433.779 537.747 433.788 537.752 433.799C537.747 433.79 537.74 433.753 537.74 433.77Z" fill="#06A68B"/>
<path fill-rule="evenodd" clip-rule="evenodd" d="M537.748 433.783C537.748 433.784 537.75 433.788 537.75 433.791C537.75 433.783 537.733 433.757 537.748 433.783Z" fill="#06A68B"/>
<path fill-rule="evenodd" clip-rule="evenodd" d="M537.686 433.631C537.698 433.667 537.714 433.701 537.729 433.737C537.721 433.719 537.714 433.705 537.707 433.687C537.894 434.154 537.775 433.85 537.686 433.631Z" fill="#06A68B"/>
<path fill-rule="evenodd" clip-rule="evenodd" d="M537.726 433.739C537.733 433.755 537.74 433.773 537.747 433.79C537.799 433.89 537.726 433.739 537.726 433.739Z" fill="#06A68B"/>
<path fill-rule="evenodd" clip-rule="evenodd" d="M537.747 433.784C537.747 433.782 537.747 433.782 537.745 433.78C537.747 433.782 537.747 433.782 537.747 433.784Z" fill="#06A68B"/>
<path fill-rule="evenodd" clip-rule="evenodd" d="M537.755 433.797C537.766 433.819 537.704 433.713 537.755 433.797V433.797Z" fill="#06A68B"/>
<path fill-rule="evenodd" clip-rule="evenodd" d="M537.748 433.784L537.744 433.78C537.746 433.782 537.746 433.784 537.748 433.784Z" fill="#06A68B"/>
<path d="M477.698 364.771H597.794C599.774 364.771 601.379 366.376 601.379 368.356V445.433C601.379 447.413 599.774 449.018 597.794 449.018H477.698C475.718 449.018 474.113 447.413 474.113 445.433V368.356C474.113 366.376 475.718 364.771 477.698 364.771Z" fill="#5E6165"/>
<path fill-rule="evenodd" clip-rule="evenodd" d="M554.124 388.97L590.919 449.018H517.329L554.124 388.97Z" fill="#2D3035"/>
<path fill-rule="evenodd" clip-rule="evenodd" d="M516.186 405.054L548.715 449.018H483.657L516.186 405.054Z" fill="#06A68B"/>
<path d="M502.344 405.102C495.662 405.102 490.245 399.685 490.245 393.003C490.245 386.32 495.662 380.903 502.344 380.903C509.027 380.903 514.444 386.32 514.444 393.003C514.444 399.685 509.027 405.102 502.344 405.102Z" fill="#F1F1EF"/>
<path fill-rule="evenodd" clip-rule="evenodd" d="M221.373 333.462C218.22 329.764 216.087 325.231 216.443 320.153C217.47 305.519 237.851 308.738 241.816 316.124C245.78 323.51 245.309 342.244 240.185 343.564C238.142 344.09 233.789 342.801 229.359 340.132L232.14 359.795H215.72L221.373 333.462Z" fill="#B28B67"/>
<path fill-rule="evenodd" clip-rule="evenodd" d="M232.457 307.612C230.293 307.257 224.466 307.013 223.392 307.013C222.705 307.013 221.961 307.17 221.554 306.54C221.221 306.024 221.343 305.151 221.244 304.552C221.128 303.857 220.964 303.17 220.799 302.485C220.327 300.536 219.613 298.681 218.615 296.94C216.741 293.674 213.997 291.115 210.532 289.627C206.706 287.983 202.377 287.606 198.261 287.94C193.857 288.296 189.871 289.75 185.712 291.117C181.75 292.42 177.6 292.933 173.455 292.297C169.28 291.656 166.125 289.394 162.603 287.247C158.997 285.049 154.877 283.611 150.614 283.942C146.635 284.25 142.968 285.892 139.678 288.086C136.6 290.138 134.06 292.607 132.626 296.082C131.083 299.821 131.085 303.924 133.622 307.228C137.299 312.016 144.125 313.255 149.804 313.131C153.089 313.06 156.315 312.461 159.416 311.371C163.552 309.917 167.127 307.452 170.996 305.453C172.812 304.515 174.689 303.744 176.656 303.189C178.565 302.65 180.446 302.403 182.174 303.556C184.003 304.775 185.642 305.973 187.734 306.736C189.74 307.469 191.866 307.878 194.004 307.862C198.164 307.83 202.265 306.534 206.305 305.666C209.6 304.959 213.126 304.254 216.485 304.934C217.886 305.218 219.934 305.804 220.44 307.26C211.919 308.803 208.573 319.335 210.975 327.067C212.271 331.24 220.064 336.118 223.094 333.924C225.014 332.534 223.849 330.71 223.094 329.505C221.65 327.199 221.156 324.236 223.829 322.63C226.134 321.245 228.558 324.534 228.604 324.53C229.237 324.48 234.712 321.385 238.484 316.869C242.206 317.09 242.77 314.638 241.882 312.632C240.993 310.626 235.447 308.102 232.457 307.612Z" fill="#191847"/>
<path fill-rule="evenodd" clip-rule="evenodd" d="M211.623 416.564L262.459 501.509L300.571 573.322H308.78L244.922 416.564L211.623 416.564Z" fill="#997659"/>
<path fill-rule="evenodd" clip-rule="evenodd" d="M295.552 570.007C294.786 572.049 294.404 573.577 294.404 574.591C294.404 575.824 294.609 577.623 295.02 579.989C296.452 579.989 309.314 579.989 333.607 579.989C334.61 576.676 334.031 574.887 331.871 574.623C329.71 574.359 327.916 574.12 326.487 573.907L308.552 565.916C308.207 565.762 307.802 565.917 307.648 566.262C307.646 566.268 307.643 566.274 307.641 566.28L306.488 569.075C304.488 570.007 302.863 570.474 301.612 570.474C300.596 570.474 299.193 570.064 297.403 569.244L297.403 569.244C296.716 568.929 295.904 569.23 295.589 569.917C295.576 569.946 295.563 569.976 295.552 570.007Z" fill="#E4E4E4"/>
<path fill-rule="evenodd" clip-rule="evenodd" d="M289.986 561.823L305.817 557.036C298.881 536.312 290.38 513.506 280.314 488.618C270.248 463.73 259.437 439.712 247.882 416.564H203.169C216.016 445.845 229.636 472.45 244.028 496.379C258.42 520.309 273.739 542.123 289.986 561.823Z" fill="#DB2721"/>
<path fill-rule="evenodd" clip-rule="evenodd" d="M208.282 416.564C203.484 446.415 194.23 484.551 193.356 485.728C192.774 486.513 171.814 493.533 130.477 506.788L132.25 514.023C181.545 506.914 207.519 501.399 210.173 497.477C214.153 491.595 234.027 445.121 241.725 416.564H208.282Z" fill="#B28B67"/>
<path fill-rule="evenodd" clip-rule="evenodd" d="M145.007 500.534L148.131 512.186C185.001 515.418 207.592 513.083 215.904 505.18C224.216 497.278 233.689 467.739 244.324 416.564H201.688C194.95 458.469 191.183 480.302 190.387 482.061C189.591 483.82 174.464 489.977 145.007 500.534Z" fill="#FF4133"/>
<path fill-rule="evenodd" clip-rule="evenodd" d="M132.499 503.773C130.355 503.374 128.783 503.263 127.784 503.439C126.569 503.653 124.832 504.168 122.573 504.983C122.822 506.391 125.056 519.052 129.276 542.965C132.714 543.377 134.376 542.496 134.261 540.324C134.146 538.152 134.069 536.344 134.031 534.9L138.788 515.859C138.879 515.493 138.657 515.122 138.29 515.03C138.284 515.029 138.277 515.027 138.271 515.026L135.317 514.376C134.051 512.569 133.309 511.051 133.092 509.82C132.916 508.82 133.076 507.368 133.573 505.463L133.573 505.463C133.764 504.733 133.326 503.985 132.595 503.795C132.563 503.786 132.531 503.779 132.499 503.773Z" fill="#E4E4E4"/>
<path fill-rule="evenodd" clip-rule="evenodd" d="M270.487 405.699L289.868 424.595C295.507 426.999 300.127 429.654 303.728 432.559C304.538 433.535 305.42 435.406 301.609 434.569C297.799 433.732 293.752 433.022 293.036 434.261C292.32 435.5 294.43 437.398 293.107 439.019C292.224 440.1 289.256 436.662 284.203 428.706L264.05 416.831L270.487 405.699ZM184.466 408.364L198.762 408.42C189.935 436.902 185.169 452.015 184.466 453.757C182.883 457.678 186.233 463.65 187.665 466.86C182.999 468.946 183.496 461.218 177.611 463.955C172.238 466.453 168.152 470.98 161.945 467.152C161.181 466.681 160.345 464.909 162.366 463.525C167.399 460.075 174.653 454.037 175.633 452.05C176.97 449.339 179.914 434.778 184.466 408.364Z" fill="#B28B67"/>
<path fill-rule="evenodd" clip-rule="evenodd" d="M225.095 348.404L231.011 347.39C241.196 372.82 258.978 395.927 284.358 416.709L265.18 439.997C239.803 410.405 224.161 379.874 225.095 348.404Z" fill="#191847"/>
<path fill-rule="evenodd" clip-rule="evenodd" d="M199.306 422.71H251.985C239.781 393.051 233.678 367.856 233.678 347.125L217.788 344.758C205.299 364.833 201.772 389.549 199.306 422.71Z" fill="#DDE3E9"/>
<path fill-rule="evenodd" clip-rule="evenodd" d="M217.451 344.77C217.453 344.766 217.455 344.762 217.458 344.758H218.495C219.736 344.801 221.626 344.878 224.166 344.989L228.006 355.957C228.412 369.328 230.784 396.276 235.122 436.8H200.59C200.68 439.599 200.829 442.424 201.037 445.275H175.361C179.202 401.966 193.228 368.461 217.439 344.758L217.451 344.77V344.77Z" fill="#2F3676"/>
<path fill-rule="evenodd" clip-rule="evenodd" d="M202.871 400.988C203.853 418.435 206.314 430.462 210.252 437.069H200.599C200.176 424.517 200.933 412.49 202.871 400.988V400.988Z" fill="black" fill-opacity="0.1"/>
<path fill-rule="evenodd" clip-rule="evenodd" d="M208.276 415.872L225.304 407.96V415.872H208.276Z" fill="white" fill-opacity="0.2"/>
<path fill-rule="evenodd" clip-rule="evenodd" d="M561.389 227.874C565.633 224.979 569.058 220.956 570.078 215.691C573.016 200.523 551.225 198.189 545.142 204.611C539.059 211.034 534.432 230.221 539.329 232.973C541.282 234.071 546.101 233.957 551.375 232.461L543.157 251.698L560.006 256.216L561.389 227.874Z" fill="#B28B67"/>
<path fill-rule="evenodd" clip-rule="evenodd" d="M555.541 213.554C552.509 222.283 549.609 226.278 546.842 225.536C542.691 224.424 539.87 220.869 538.048 220.381C536.721 220.025 536.576 221.751 537.128 223.207C537.584 224.409 540.86 226.327 540.441 227.889C540.022 229.45 537.552 227.494 537.304 228.42C536.893 229.951 535.63 232.7 538.313 233.419C541.028 234.146 549.075 235.252 551.48 231.616C553.032 229.27 555.021 224.079 557.447 216.043C557.617 216.068 557.787 216.103 557.957 216.148C560.283 216.771 561.668 219.146 561.049 221.451C560.736 222.621 559.966 223.549 558.98 224.097C559.589 225.721 560.299 227.438 561.156 229.243C566.608 227.707 572.292 220.458 569.804 211.365C569.566 207.173 567.241 204.346 564.1 202.48C561.654 200.602 558.832 199.708 556.237 199.746C551.402 198.881 546.798 199.178 545.374 199.706C544.185 204.141 544.699 205.689 552.137 207.558C553.701 208.998 554.661 211.013 555.541 213.554Z" fill="#191847"/>
<path fill-rule="evenodd" clip-rule="evenodd" d="M551.806 314.875L516.129 404.798L492.2 480.82H482.751L519.333 314.875L551.806 314.875Z" fill="#997659"/>
<path fill-rule="evenodd" clip-rule="evenodd" d="M558.99 314.875C559.37 346.475 564.911 389.018 565.796 390.988C566.386 392.301 586.758 409 626.912 441.086L620.404 448.021C573.026 420.512 548.241 404.923 546.048 401.254C542.76 395.75 532.053 345.106 523.457 314.875H558.99Z" fill="#B28B67"/>
<path fill-rule="evenodd" clip-rule="evenodd" d="M627.826 438.757C630.011 439.529 631.517 440.261 632.343 440.954C633.347 441.796 634.671 443.192 636.317 445.143C635.34 446.307 626.555 456.773 609.964 476.54C606.581 475.092 605.519 473.399 606.78 471.461C608.04 469.523 609.072 467.9 609.874 466.591L615.616 446.54C615.726 446.154 616.129 445.931 616.515 446.041C616.521 446.043 616.528 446.045 616.534 446.047L619.598 447.018C621.723 446.028 623.213 445.024 624.067 444.007C624.761 443.18 625.385 441.758 625.939 439.742L625.939 439.742C626.152 438.968 626.952 438.513 627.727 438.726C627.76 438.735 627.793 438.745 627.826 438.757Z" fill="#E4E4E4"/>
<path fill-rule="evenodd" clip-rule="evenodd" d="M496.069 477.382C496.882 479.552 497.288 481.175 497.288 482.253C497.288 483.563 497.07 485.475 496.633 487.989C495.113 487.989 481.447 487.989 455.635 487.989C454.569 484.468 455.184 482.567 457.48 482.287C459.775 482.006 461.682 481.752 463.2 481.526L482.256 473.034C482.623 472.87 483.053 473.035 483.216 473.402C483.219 473.408 483.222 473.414 483.224 473.421L484.449 476.391C486.574 477.382 488.301 477.878 489.629 477.878C490.709 477.878 492.199 477.442 494.101 476.57L494.101 476.57C494.831 476.236 495.694 476.556 496.029 477.286C496.043 477.317 496.056 477.349 496.069 477.382Z" fill="#E4E4E4"/>
<path fill-rule="evenodd" clip-rule="evenodd" d="M527.818 472.99L482.893 468.134L516.188 314.875H556.426L527.818 472.99Z" fill="#69A1AC"/>
<path fill-rule="evenodd" clip-rule="evenodd" d="M617.62 429.897L588.151 464.631C557.112 430.874 539.017 408.847 533.864 398.55C528.712 388.254 524.08 360.363 519.968 314.875H565.269C567.515 354.893 569.029 375.833 569.811 377.695C570.593 379.557 586.529 396.958 617.62 429.897Z" fill="#89C5CC"/>
<path fill-rule="evenodd" clip-rule="evenodd" d="M496.17 298.204L470.392 310.856C463.905 311.427 458.366 312.582 453.775 314.324C452.636 315.04 451.132 316.633 455.257 317.039C459.383 317.445 463.704 318.057 464.022 319.537C464.339 321.018 461.585 322.235 462.391 324.298C462.928 325.674 467.054 323.19 474.768 316.845L499.026 311.506L496.17 298.204ZM583.735 314.238L568.767 311.659C572.766 342.946 574.974 359.562 575.39 361.506C576.325 365.881 571.722 371.482 569.633 374.559C574.131 377.593 575.032 369.454 580.687 373.39C585.849 376.982 589.293 382.449 596.491 379.609C597.376 379.259 598.576 377.569 596.717 375.754C592.084 371.233 585.605 363.608 584.945 361.357C584.044 358.289 583.641 342.582 583.735 314.238Z" fill="#B28B67"/>
<path fill-rule="evenodd" clip-rule="evenodd" d="M552.235 244.301L546.232 242.153C519.785 257.838 503.661 294.088 471.969 309.208L477.268 318.757C527.16 321.354 547.426 277.244 552.235 244.301Z" fill="#E87613"/>
<path fill-rule="evenodd" clip-rule="evenodd" d="M565.558 326.435C540.744 322.058 522.49 318.839 510.798 316.777C508.296 316.336 509.402 312.824 510.084 311.074C517.955 290.875 538.235 271.182 543.496 241.382L559.726 241.704C569.1 264.913 569.075 291.448 565.558 326.435Z" fill="#DDE3E9"/>
<path fill-rule="evenodd" clip-rule="evenodd" d="M575.827 265.73C578.237 265.478 580.324 264.268 582.087 262.1C589.69 252.754 588.612 246.68 582.774 243.716C576.936 240.752 570.752 243.646 560.922 241.912C560.387 241.818 559.892 241.765 559.435 241.753L554.441 241.161C531.81 286.496 522.263 317.723 525.801 334.84L568.9 342.442C570.408 348.816 571.971 354.232 573.591 358.688L585.334 360.759C592.716 325.399 589.547 293.722 575.827 265.73Z" fill="#FF9B21"/>
<path fill-rule="evenodd" clip-rule="evenodd" d="M563.857 316.219C560.509 327.264 556.861 335.065 552.91 339.621L568.905 342.443C567.146 335.007 565.464 326.265 563.857 316.219Z" fill="black" fill-opacity="0.1"/>
</svg>
