<svg width="23" height="22" viewBox="0 0 23 22" fill="none" xmlns="http://www.w3.org/2000/svg">
<path fill-rule="evenodd" clip-rule="evenodd" d="M9.147 0.353485C4.095 0.353485 0 3.38148 0 7.16949C0 9.53049 1.157 12.0455 3.575 13.2815C3.575 13.2955 3.57 13.3065 3.57 13.3225C3.57 14.3475 2.717 15.7535 2.38 16.3335H2.382C2.355 16.3965 2.339 16.4645 2.339 16.5395C2.339 16.8255 2.57 17.0555 2.857 17.0555C2.9 17.0555 2.969 17.0465 2.994 17.0465C3 17.0465 3.003 17.0465 3.002 17.0485C4.789 16.7565 7.427 14.7465 7.817 14.2705C8.219 14.3305 8.49 14.3395 8.826 14.3395C8.968 14.3395 9.121 14.3375 9.3 14.3375C14.352 14.3375 18.267 11.4515 18.207 7.16949C18.207 3.38148 14.199 0.353485 9.147 0.353485ZM9.147 1.75349C13.419 1.75349 16.807 4.15948 16.807 7.16949C16.793 10.5085 13.616 12.9585 9.344 12.9585C9.344 12.9585 8.692 12.9845 8.022 12.8845L7.241 12.8305L6.345 13.5755C6.137 13.8145 5.234 14.5695 4.456 15.0585C4.93 13.7085 4.909 13.2815 4.909 13.2815L4.975 12.4255L4.211 12.0355C2.272 11.0425 1.4 8.97849 1.4 7.16949C1.4 4.15948 4.875 1.75349 9.147 1.75349Z" fill="#7F8083"/>
<path fill-rule="evenodd" clip-rule="evenodd" d="M22.4151 12.8242C22.4151 10.9272 21.6741 9.4802 19.8241 8.3942C19.7791 8.8992 19.6351 9.4402 19.4791 9.9162C20.6741 10.7432 21.0151 11.5922 21.0151 12.8242C21.0151 14.3342 20.3111 15.4292 18.6761 16.2662L17.9801 16.6122C17.9801 16.6122 18.0531 18.4062 18.1601 18.8592C16.7931 17.8582 16.3241 17.0222 16.3241 17.0222L15.5881 17.1352C15.2971 17.1782 14.5091 17.1792 14.5091 17.1792C12.6071 17.1792 11.1981 16.7262 9.99609 15.7852C10.3221 15.7642 8.04509 15.7652 7.99409 15.8102C9.38409 17.5082 11.6571 18.5792 14.5091 18.5792C14.6651 18.5792 14.7961 18.5802 14.9191 18.5802C15.2091 18.5802 15.4441 18.5722 15.7911 18.5212C16.1291 18.9322 18.0261 20.7422 19.5711 20.9942C19.5701 20.9922 19.5721 20.9922 19.5791 20.9922C19.5991 20.9922 19.6601 21.0002 19.6961 21.0002C19.9441 21.0002 20.1441 20.8012 20.1441 20.5522C20.1441 20.4892 20.1301 20.4292 20.1071 20.3752H20.1081C19.8181 19.8752 19.3621 18.4122 19.3621 17.5262C19.3621 17.5122 19.3581 17.5032 19.3581 17.4902C21.4471 16.4222 22.4151 14.8632 22.4151 12.8242Z" fill="#7F8083"/>
</svg>
