<svg width="23" height="24" viewBox="0 0 23 24" fill="none" xmlns="http://www.w3.org/2000/svg">
<g clip-path="url(#clip0)">
<path fill-rule="evenodd" clip-rule="evenodd" d="M8.78169 4.08551C6.17069 4.08551 3.50069 6.26551 3.50069 8.22251V11.1785C3.50069 12.4695 4.0477 15.0825 5.70169 16.4085L1.18069 18.8615C1.18069 18.8615 -0.000305176 19.3865 -0.000305176 20.0435V21.8175C-0.000305176 22.4705 0.529695 23.0005 1.18069 23.0005H16.3187C16.9707 23.0005 17.5007 22.4705 17.5007 21.8175V20.0435C17.5007 19.3475 16.3187 18.8615 16.3187 18.8615L11.9117 16.4195C13.5497 15.1305 13.9937 12.5985 13.9937 11.1785V8.22251C13.9937 6.26551 11.3937 4.08551 8.78169 4.08551ZM8.78169 5.48551C10.8037 5.48551 12.5947 7.19351 12.5947 8.22251V11.1785C12.5947 12.2755 12.2537 14.3695 11.0457 15.3195C10.6767 15.6105 10.4767 16.0685 10.5157 16.5375C10.5557 17.0055 10.8277 17.4235 11.2407 17.6485L15.6477 20.0895C15.6867 20.1115 15.7357 20.1345 15.7777 20.1525C15.8807 20.1955 16.0077 20.2695 16.0997 20.3345V21.5995H1.39969V20.3475C1.50069 20.2755 1.64069 20.1905 1.75069 20.1395C1.78369 20.1255 1.81669 20.1095 1.84769 20.0915L6.36969 17.6385C6.78169 17.4165 7.05469 17.0015 7.09669 16.5345C7.13869 16.0665 6.94369 15.6095 6.57769 15.3165C5.40469 14.3755 4.90069 12.2915 4.90069 11.1785V8.22251C4.90069 7.21751 6.79669 5.48551 8.78169 5.48551Z" fill="#7F8083"/>
<path fill-rule="evenodd" clip-rule="evenodd" d="M21.2173 15.375L16.7443 12.934C18.3833 11.645 18.8933 9.113 18.8933 7.693V4.737C18.8933 2.78 16.2273 0.578003 13.6153 0.578003C11.9183 0.578003 10.1823 1.501 9.1723 2.683C9.7483 2.718 10.3833 2.719 10.9323 2.894C11.6703 2.32 12.6033 1.978 13.6153 1.978C15.6373 1.978 17.4933 3.708 17.4933 4.737V7.693C17.4933 8.789 17.0873 10.883 15.8793 11.834C15.5093 12.125 15.3113 12.582 15.3493 13.051C15.3893 13.52 15.6613 13.938 16.0743 14.163L20.5473 16.604C20.5863 16.625 20.6353 16.648 20.6763 16.666C20.7803 16.71 20.9063 16.783 20.9993 16.848V18.093H18.1743C18.6003 18.414 18.7293 18.875 18.8953 19.492H21.2173C21.8693 19.492 22.4003 18.963 22.4003 18.31V16.558C22.4003 15.861 21.2173 15.375 21.2173 15.375Z" fill="#7F8083"/>
</g>
<defs>
<clipPath id="clip0">
<rect width="23" height="24" fill="white"/>
</clipPath>
</defs>
</svg>
