<svg width="22" height="22" viewBox="0 0 22 22" fill="none" xmlns="http://www.w3.org/2000/svg">
<path fill-rule="evenodd" clip-rule="evenodd" d="M18.5288 9.77046V20.624H15.1138V13.7539C15.1138 13.3736 14.8073 13.0659 14.4284 13.0659H7.5984C7.22146 13.0659 6.91501 13.3726 6.91305 13.752L6.89151 20.624H3.47161V9.77046C3.47161 9.71542 3.453 9.66726 3.44126 9.61615L11.0271 1.68165L18.5621 9.60731C18.5484 9.66038 18.5288 9.71247 18.5288 9.77046ZM21.8097 11.0295L11.5216 0.211312C11.3923 0.0756791 11.2141 0 11.0271 0C10.8401 0 10.6619 0.0756791 10.5327 0.211312L0.190729 11.0295C-0.0716631 11.3037 -0.0618723 11.7391 0.211289 12.0015C0.484451 12.2649 0.917202 12.2571 1.17959 11.9819L2.1009 11.0177V21.312C2.1009 21.6924 2.40833 22 2.78625 22H7.57491C7.95185 22 8.2583 21.6934 8.26026 21.314L8.2818 14.4419H13.7431V21.312C13.7431 21.6924 14.0495 22 14.4284 22H19.2141C19.593 22 19.8995 21.6924 19.8995 21.312V11.0138L20.8198 11.9828C20.9549 12.1224 21.1351 12.1942 21.3152 12.1942C21.4856 12.1932 21.6569 12.1303 21.7891 12.0015C22.0623 11.7391 22.0711 11.3037 21.8097 11.0295Z" fill="#7F8083"/>
</svg>
